<svg xmlns="http://www.w3.org/2000/svg" version="1.1" xmlns:xlink="http://www.w3.org/1999/xlink" xmlns:svgjs="http://svgjs.dev/svgjs" width="1440" height="560" preserveAspectRatio="none" viewBox="0 0 1440 560"><g mask="url(&quot;#SvgjsMask3247&quot;)" fill="none"><rect width="1440" height="560" x="0" y="0" fill="url(&quot;#SvgjsLinearGradient3248&quot;)"></rect><path d="M140 109.87C88.01 56.52 39.07 32.77 39.07 0C39.07 -22.17 89.53 0 140 0C210 0 210 0 280 0C350 0 350 0 420 0C464.42 0 467.06 -9.34 508.85 0C537.06 6.3 533.64 31.29 560 31.29C591.66 31.29 590.61 7.66 624.88 0C660.61 -7.99 662.44 0 700 0C770 0 770 0 840 0C910 0 910 0 980 0C1050 0 1050 0 1120 0C1180.66 0 1215.65 -32.45 1241.33 0C1271.04 37.55 1224.28 72.5 1230.77 140C1233.62 169.64 1238.05 194.29 1260 194.29C1297 194.29 1347.15 178.02 1348.67 140C1351.04 80.87 1253.66 38.51 1267.78 0C1279.33 -31.49 1333.89 0 1400 0C1451.18 0 1455.91 -11.85 1502.37 0C1525.91 6.01 1533.75 12.46 1540 35.71C1552.56 82.46 1540 87.86 1540 140C1540 210 1540 210 1540 280C1540 330.4 1552.65 335.64 1540 380.8C1533.05 405.64 1500.8 398.82 1500.8 420C1500.8 445.64 1531.39 443.68 1540 474.44C1550.99 513.68 1566.55 543.77 1540 560C1496.55 586.55 1470 560 1400 560C1332.19 560 1330.61 563.01 1264.38 560C1260.61 559.83 1263.16 555.83 1260 553.64C1190.97 505.83 1171.96 458.03 1120 460C1087.96 461.21 1125.68 535.94 1092 560C1055.68 585.94 1036 560 980 560C910 560 910 560 840 560C830.87 560 830.34 562.87 821.74 560C760.34 539.53 762.22 516.55 700 513.33C631.35 509.78 626.43 525.35 560 546.45C552.98 548.68 560.28 559.31 553.11 560C490.28 566.08 486.56 560 420 560C360.29 560 327.25 592.22 300.59 560C269.32 522.22 312.54 485.42 304.14 420C302.25 405.27 294.43 399.71 280 399.71C241.19 399.71 228.74 395.71 197.65 420C158.74 450.4 165.82 462.98 140 509.09C126.62 532.98 141.35 551.97 119.26 560C71.35 577.42 27.43 592.2 0 560C-32.2 522.2 0 490 0 420C0 350 0 350 0 280C0 235.74 -27.02 211.53 0 191.47C42.98 159.56 75.44 194.99 140 176.06C163.2 169.26 175.52 157.24 175.52 140C175.52 124.14 156.23 126.52 140 109.87" stroke="rgba(255, 196, 9, 1)" stroke-width="2"></path><path d="M980 352.12C947.16 352.12 926.67 389.56 926.67 420C926.67 443.5 950.31 460 980 460C1032.97 460 1092 445.67 1092 420C1092 391.73 1029.82 352.12 980 352.12" stroke="rgba(255, 196, 9, 1)" stroke-width="2"></path><path d="M140 65.57C107.72 35.04 79.77 19.56 79.77 0C79.77 -13.23 109.88 0 140 0C210 0 210 0 280 0C350 0 350 0 420 0C430.77 0 432.14 -4.87 441.54 0C502.14 31.37 497.84 67.88 560 72.47C627.07 77.42 632.39 13.07 700 19.09C772.39 25.53 772.73 54.36 840 97.39C867.23 114.81 884.6 111.29 889 140C898.6 202.59 879.39 210.15 868 280C856.56 350.15 856.68 350.36 843.33 420C842.68 423.4 843.32 425.28 840 426.09C771.65 442.78 770.32 453.13 700 455C630.32 456.86 611.03 407.32 560 433.55C508.9 459.82 541.37 518.78 495.74 560C471.37 582.01 457.87 560 420 560C386.03 560 361.11 582.81 352.06 560C333.35 512.81 384.66 479.1 364.48 420C348.63 373.59 329.39 362.19 280 348.99C217.15 332.19 200.96 337.14 140 360C106.26 372.65 113.47 388.62 90.59 420C43.47 484.62 24.83 552 0 552C-20.47 552 0 486 0 420C0 350 0 350 0 280C0 261.47 -14.6 248.25 0 242.94C55.4 222.79 79.71 256.34 140 229.09C193.59 204.87 227.76 182.58 227.76 140C227.76 100.82 181.72 105.04 140 65.57" stroke="rgba(183, 148, 1, 1)" stroke-width="2"></path><path d="M420 93.33C411.89 93.33 400.69 117.91 400.69 140C400.69 153.97 411.59 165.45 420 165.45C427.46 165.45 432.44 153.33 432.44 140C432.44 117.27 427.76 93.33 420 93.33" stroke="rgba(183, 148, 1, 1)" stroke-width="2"></path><path d="M1010.33 140C1040.27 62.69 1059.42 66.82 1111.76 0C1114.25 -3.18 1115.88 0 1120 0C1122.34 0 1123.62 -2.04 1124.67 0C1159.77 67.96 1157.04 70.74 1192.31 140C1224.7 203.6 1210.06 250.98 1260 265.71C1313.91 281.61 1340.71 244.68 1400 201.25C1426.51 181.83 1431.61 168.5 1431.61 140C1431.61 120.68 1414.83 123.63 1400 105.61C1357.22 53.63 1316.39 32.58 1316.39 0C1316.39 -20.22 1358.2 0 1400 0C1432.36 0 1437.84 -13.72 1464.73 0C1507.84 21.99 1517.34 29.28 1540 71.43C1554.97 99.28 1540 105.72 1540 140C1540 201.09 1554.49 210.42 1540 262.18C1534.89 280.42 1517.04 266.24 1500.8 280C1447.04 325.55 1460.34 361.31 1400 380.8C1339.94 400.2 1330.29 360.04 1260 357.78C1190.29 355.54 1182.45 390.72 1120 371.8C1054.11 351.83 1031.53 339.61 1003.33 280C976.7 223.71 986.05 202.69 1010.33 140" stroke="rgba(255, 196, 9, 1)" stroke-width="2"></path><path d="M923.24 560C923.24 549.78 952.98 522.5 980 522.5C1002.36 522.5 1022 549.26 1022 560C1022 568.01 1001 560 980 560C951.62 560 923.24 568.53 923.24 560" stroke="rgba(255, 196, 9, 1)" stroke-width="2"></path><path d="M1373.75 560C1373.75 536.52 1383.79 495.38 1400 495.38C1417.91 495.38 1442 539.09 1442 560C1442 571.4 1421 560 1400 560C1386.88 560 1373.75 568.83 1373.75 560" stroke="rgba(255, 196, 9, 1)" stroke-width="2"></path><path d="M140 21.27C129.16 11.76 120.47 6.34 120.47 0C120.47 -4.29 130.24 0 140 0C210 0 210 0 280 0C320.98 0 361.95 -23.49 361.95 0C361.95 46.51 332.06 135.01 280 140C221.09 145.65 208.92 81.76 140 21.27" stroke="rgba(183, 148, 1, 1)" stroke-width="2"></path><path d="M510.22 140C523.65 117.06 533.56 113.65 560 113.65C609.36 113.65 615.57 118.68 661.82 140C685.57 150.95 684.89 156.06 700 178.18C732.7 226.06 757.44 230.16 757.44 280C757.44 324.14 741.52 353.75 700 366.15C642.8 383.23 626.01 362.9 560 338.95C507.31 319.83 473.44 323.27 462.61 280C448.55 223.79 474.96 200.23 510.22 140" stroke="rgba(255, 196, 9, 1)" stroke-width="2"></path><path d="M1068.67 140C1076.89 101.12 1097.46 73.04 1120 73.04C1140.05 73.04 1143.5 104.3 1153.85 140C1173.5 207.78 1191.39 221.3 1180 280C1174.47 308.51 1148.74 314.43 1120 314.43C1096.87 314.43 1083.54 304.79 1076.25 280C1057.88 217.57 1055.01 204.6 1068.67 140" stroke="rgba(255, 196, 9, 1)" stroke-width="2"></path><path d="M1400 44.21C1383.82 44.21 1365 13.64 1365 0C1365 -8.47 1382.5 0 1400 0C1413.55 0 1427.1 -7.59 1427.1 0C1427.1 14.52 1414.87 44.21 1400 44.21" stroke="rgba(255, 196, 9, 1)" stroke-width="2"></path><path d="M1488.06 140C1488.06 119.9 1523.08 107.14 1540 107.14C1549.05 107.14 1540 123.57 1540 140C1540 169.27 1551.11 198.55 1540 198.55C1525.14 198.55 1488.06 165.6 1488.06 140" stroke="rgba(183, 148, 1, 1)" stroke-width="2"></path><path d="M154 280C154 232.79 224.75 140 280 140C327.12 140 358.75 227.36 358.75 280C358.75 306.49 319.76 298.26 280 298.26C217.38 298.26 154 311.92 154 280" stroke="rgba(255, 196, 9, 1)" stroke-width="2"></path><path d="M0 345.33C5.6 345.33 21.96 384.41 21.96 420C21.96 437.75 6.02 452 0 452C-4.96 452 0 436 0 420C0 382.66 -5.38 345.33 0 345.33" stroke="rgba(255, 196, 9, 1)" stroke-width="2"></path><path d="M403.53 560C403.53 511.11 411.3 448 420 448C428.72 448 438.36 511.8 438.36 560C438.36 567.8 429.18 560 420 560C411.76 560 403.53 567.11 403.53 560" stroke="rgba(183, 148, 1, 1)" stroke-width="2"></path></g><defs><mask id="SvgjsMask3247"><rect width="1440" height="560" fill="#ffffff"></rect></mask><linearGradient x1="0%" y1="50%" x2="100%" y2="50%" gradientUnits="userSpaceOnUse" id="SvgjsLinearGradient3248"><stop stop-color="rgba(246, 246, 246, 1)" offset="0"></stop><stop stop-color="rgba(255, 197, 107, 1)" offset="0.98"></stop></linearGradient></defs></svg>